<svg xmlns="http://www.w3.org/2000/svg" viewBox="0 0 1200 675" width="1200" height="675" style="background-color:#F8FAFC; font-family:-apple-system, BlinkMacSystemFont, 'Segoe UI', Roboto, Helvetica, Arial, sans-serif;">
<defs>
  <filter id="card-shadow" x="-5%" y="-5%" width="110%" height="110%" filterUnits="userSpaceOnUse">
    <feDropShadow dx="0" dy="4" stdDeviation="6" flood-color="#0F172A" flood-opacity="0.05" />
  </filter>
  <filter id="subtle-shadow" x="-2%" y="-2%" width="104%" height="104%" filterUnits="userSpaceOnUse">
    <feDropShadow dx="0" dy="2" stdDeviation="3" flood-color="#0F172A" flood-opacity="0.04" />
  </filter>
</defs>

  <!-- Header -->
  <text x="60" y="52" fill="#DC2626" font-size="13" font-weight="800" letter-spacing="1.5">KENYA IN DATA • PUBLIC DEBT COMPARISON</text>
  <text x="60" y="88" fill="#0F172A" font-size="24" font-weight="900">Debt Stock Growth: Indexed to Start of Fiscal Window (Year 0 = 100)</text>
  <text x="60" y="116" fill="#64748B" font-size="14" font-weight="500">Comparing cumulative nominal and inflation-adjusted growth over matching 4-year fiscal windows</text>
<line x1="120" y1="570.0" x2="960" y2="570.0" stroke="#E2E8F0" stroke-width="1" stroke-dasharray="4,4" /><text x="105" y="574.0" fill="#64748B" font-size="12" font-weight="600" text-anchor="end">100</text><line x1="120" y1="433.33333333333337" x2="960" y2="433.33333333333337" stroke="#E2E8F0" stroke-width="1" stroke-dasharray="4,4" /><text x="105" y="437.33333333333337" fill="#64748B" font-size="12" font-weight="600" text-anchor="end">150</text><line x1="120" y1="296.6666666666667" x2="960" y2="296.6666666666667" stroke="#E2E8F0" stroke-width="1" stroke-dasharray="4,4" /><text x="105" y="300.6666666666667" fill="#64748B" font-size="12" font-weight="600" text-anchor="end">200</text><line x1="120" y1="160.0" x2="960" y2="160.0" stroke="#E2E8F0" stroke-width="1" stroke-dasharray="4,4" /><text x="105" y="164.0" fill="#64748B" font-size="12" font-weight="600" text-anchor="end">250</text><line x1="120" y1="570" x2="960" y2="570" stroke="#64748B" stroke-width="1.5" /><line x1="120.0" y1="570" x2="120.0" y2="578" stroke="#64748B" stroke-width="1.5" /><text x="120.0" y="594" fill="#0F172A" font-size="13" font-weight="700" text-anchor="middle">Year 0</text><text x="120.0" y="610" fill="#64748B" font-size="10.5" text-anchor="middle">U: Jun 2013</text><text x="120.0" y="624" fill="#64748B" font-size="10.5" text-anchor="middle">R: Jun 2022</text><line x1="330.0" y1="570" x2="330.0" y2="578" stroke="#64748B" stroke-width="1.5" /><text x="330.0" y="594" fill="#0F172A" font-size="13" font-weight="700" text-anchor="middle">Year 1</text><text x="330.0" y="610" fill="#64748B" font-size="10.5" text-anchor="middle">U: Jun 2014</text><text x="330.0" y="624" fill="#64748B" font-size="10.5" text-anchor="middle">R: Jun 2023</text><line x1="540.0" y1="570" x2="540.0" y2="578" stroke="#64748B" stroke-width="1.5" /><text x="540.0" y="594" fill="#0F172A" font-size="13" font-weight="700" text-anchor="middle">Year 2</text><text x="540.0" y="610" fill="#64748B" font-size="10.5" text-anchor="middle">U: Jun 2015</text><text x="540.0" y="624" fill="#64748B" font-size="10.5" text-anchor="middle">R: Jun 2024</text><line x1="750.0" y1="570" x2="750.0" y2="578" stroke="#64748B" stroke-width="1.5" /><text x="750.0" y="594" fill="#0F172A" font-size="13" font-weight="700" text-anchor="middle">Year 3</text><text x="750.0" y="610" fill="#64748B" font-size="10.5" text-anchor="middle">U: Jun 2016</text><text x="750.0" y="624" fill="#64748B" font-size="10.5" text-anchor="middle">R: Jun 2025</text><line x1="960.0" y1="570" x2="960.0" y2="578" stroke="#64748B" stroke-width="1.5" /><text x="960.0" y="594" fill="#0F172A" font-size="13" font-weight="700" text-anchor="middle">Year 4</text><text x="960.0" y="610" fill="#64748B" font-size="10.5" text-anchor="middle">U: Jun 2017</text><text x="960.0" y="624" fill="#64748B" font-size="10.5" text-anchor="middle">R: Jun 2026*</text><polyline points="120.0,570.0 330.0,517.7933333333333 540.0,486.36 750.0,414.74666666666667 960.0,364.4533333333334" fill="none" stroke="#DC2626" stroke-width="2.5" stroke-dasharray="6,4" /><polyline points="120.0,570.0 330.0,493.74 540.0,433.06 750.0,322.0866666666667 960.0,207.2866666666667" fill="none" stroke="#DC2626" stroke-width="4" /><polyline points="120.0,570.0 330.0,546.22 540.0,550.8666666666667 750.0,528.7266666666667 960.0,517.7933333333333" fill="none" stroke="#2563EB" stroke-width="2.5" stroke-dasharray="6,4" /><polyline points="120.0,570.0 330.0,522.7133333333334 540.0,513.1466666666666 750.0,474.88 960.0,437.43333333333334" fill="none" stroke="#2563EB" stroke-width="4" /><circle cx="120.0" cy="570.0" r="6" fill="#DC2626" stroke="#FFFFFF" stroke-width="2" /><circle cx="120.0" cy="570.0" r="6" fill="#2563EB" stroke="#FFFFFF" stroke-width="2" /><circle cx="330.0" cy="493.74" r="6" fill="#DC2626" stroke="#FFFFFF" stroke-width="2" /><circle cx="330.0" cy="522.7133333333334" r="6" fill="#2563EB" stroke="#FFFFFF" stroke-width="2" /><circle cx="540.0" cy="433.06" r="6" fill="#DC2626" stroke="#FFFFFF" stroke-width="2" /><circle cx="540.0" cy="513.1466666666666" r="6" fill="#2563EB" stroke="#FFFFFF" stroke-width="2" /><circle cx="750.0" cy="322.0866666666667" r="6" fill="#DC2626" stroke="#FFFFFF" stroke-width="2" /><circle cx="750.0" cy="474.88" r="6" fill="#2563EB" stroke="#FFFFFF" stroke-width="2" /><circle cx="960.0" cy="207.2866666666667" r="6" fill="#DC2626" stroke="#FFFFFF" stroke-width="2" /><circle cx="960.0" cy="437.43333333333334" r="6" fill="#2563EB" stroke="#FFFFFF" stroke-width="2" />
  <!-- Uhuru End Callout -->
  <g transform="translate(975.0, 187.2866666666667)">
    <rect x="0" y="0" width="180" height="48" rx="6" fill="#FFFFFF" stroke="#DC2626" stroke-width="1.5" filter="url(#subtle-shadow)" />
    <text x="12" y="20" fill="#DC2626" font-size="13" font-weight="900">Uhuru: +132.7%</text>
    <text x="12" y="38" fill="#64748B" font-size="11" font-weight="600">Index: 232.7 (Real: +75.2%)</text>
  </g>

  <!-- Ruto End Callout -->
  <g transform="translate(975.0, 423.43333333333334)">
    <rect x="0" y="0" width="180" height="48" rx="6" fill="#FFFFFF" stroke="#2563EB" stroke-width="1.5" filter="url(#subtle-shadow)" />
    <text x="12" y="20" fill="#2563EB" font-size="13" font-weight="900">Ruto Window: +48.5%*</text>
    <text x="12" y="38" fill="#64748B" font-size="11" font-weight="600">Index: 148.5 (Real: +19.1%)</text>
  </g>

  <g transform="translate(140, 165)">
    <rect x="0" y="0" width="340" height="60" rx="8" fill="#FFFFFF" fill-opacity="0.9" stroke="#E2E8F0" stroke-width="1" />
    <line x1="15" y1="20" x2="45" y2="20" stroke="#DC2626" stroke-width="3.5" />
    <text x="55" y="24" fill="#0F172A" font-size="11.5" font-weight="700">Uhuru Nominal</text>
    <line x1="175" y1="20" x2="205" y2="20" stroke="#DC2626" stroke-width="2" stroke-dasharray="4,3" />
    <text x="215" y="24" fill="#64748B" font-size="11" font-weight="600">Uhuru Real (CPI-adj)</text>

    <line x1="15" y1="42" x2="45" y2="42" stroke="#2563EB" stroke-width="3.5" />
    <text x="55" y="46" fill="#0F172A" font-size="11.5" font-weight="700">Ruto Window Nominal</text>
    <line x1="175" y1="42" x2="205" y2="42" stroke="#2563EB" stroke-width="2" stroke-dasharray="4,3" />
    <text x="215" y="46" fill="#64748B" font-size="11" font-weight="600">Ruto Real (CPI-adj)</text>
  </g>

  <!-- Footer -->
  <line x1="60" y1="615" x2="1140" y2="615" stroke="#E2E8F0" stroke-width="1.2" />
  <text x="60" y="642" fill="#64748B" font-size="11.5" font-style="italic">Data: National Treasury Annual Debt Reports; KNBS June CPI series (2009=100 & 2019=100)  |  Year 0 = 100 baseline. Deflated by matching June CPI observations.</text>
  <text x="1140" y="642" fill="#0F172A" font-size="11.5" font-weight="700" text-anchor="end">Analysis: Kenya in Data • kenyaindata.org</text>
</svg>
