<svg xmlns="http://www.w3.org/2000/svg" viewBox="0 0 1200 675" width="1200" height="675" style="background-color:#F8FAFC; font-family:-apple-system, BlinkMacSystemFont, 'Segoe UI', Roboto, sans-serif;"><text x="60" y="52" fill="#DC2626" font-size="13" font-weight="800" letter-spacing="1.5">KENYA IN DATA • ANNUAL DEBT FLOWS</text><text x="60" y="88" fill="#0F172A" font-size="24" font-weight="900">Annual Net Debt Additions: Year-by-Year Comparison</text><text x="60" y="116" fill="#64748B" font-size="14" font-weight="500">Net billions added to public debt stock in each successive fiscal year • Uhuru (2013–17) vs Ruto (2022–26*)</text><rect x="840" y="65" width="14" height="14" rx="3" fill="#DC2626" /><text x="862" y="77" fill="#0F172A" font-size="12" font-weight="700">Uhuru Kenyatta</text><rect x="990" y="65" width="14" height="14" rx="3" fill="#2563EB" /><text x="1012" y="77" fill="#0F172A" font-size="12" font-weight="700">William Ruto</text><line x1="80" y1="450.0" x2="1075" stroke="#E2E8F0" stroke-width="1" stroke-dasharray="4,4" /><text x="65" y="454.0" fill="#64748B" font-size="11" font-weight="600" text-anchor="end">+KSh 400B</text><line x1="80" y1="370.0" x2="1075" stroke="#E2E8F0" stroke-width="1" stroke-dasharray="4,4" /><text x="65" y="374.0" fill="#64748B" font-size="11" font-weight="600" text-anchor="end">+KSh 800B</text><line x1="80" y1="290.0" x2="1075" stroke="#E2E8F0" stroke-width="1" stroke-dasharray="4,4" /><text x="65" y="294.0" fill="#64748B" font-size="11" font-weight="600" text-anchor="end">+KSh 1200B</text><line x1="80" y1="210.0" x2="1075" stroke="#E2E8F0" stroke-width="1" stroke-dasharray="4,4" /><text x="65" y="214.0" fill="#64748B" font-size="11" font-weight="600" text-anchor="end">+KSh 1600B</text><line x1="80" y1="530" x2="1075" stroke="#64748B" stroke-width="1.5" /><text x="65" y="534" fill="#64748B" font-size="11" font-weight="600" text-anchor="end">0</text><rect x="80" y="150" width="230" height="425" rx="10" fill="#FFFFFF" stroke="#E2E8F0" stroke-width="1" /><text x="195.0" y="178" fill="#0F172A" font-size="15" font-weight="900" text-anchor="middle">YEAR 1</text><text x="195.0" y="196" fill="#64748B" font-size="11" font-weight="500" text-anchor="middle">FY13/14 vs FY22/23</text><rect x="147.0" y="434.8" width="42" height="95.19999999999999" rx="4" fill="#DC2626" /><text x="168.0" y="426.8" fill="#DC2626" font-size="11.5" font-weight="800" text-anchor="middle">+KSh 476B</text><rect x="201.0" y="226.42000000000002" width="42" height="303.58" rx="4" fill="#2563EB" /><text x="222.0" y="218.42000000000002" fill="#2563EB" font-size="11.5" font-weight="800" text-anchor="middle">+KSh 1,518B</text><rect x="90" y="538" width="210" height="28" rx="5" fill="#F8FAFC" /><text x="195.0" y="556" fill="#334155" font-size="9.5" font-weight="600" text-anchor="middle">KES depreciated to 140.5</text><rect x="335" y="150" width="230" height="425" rx="10" fill="#FFFFFF" stroke="#E2E8F0" stroke-width="1" /><text x="450.0" y="178" fill="#0F172A" font-size="15" font-weight="900" text-anchor="middle">YEAR 2</text><text x="450.0" y="196" fill="#64748B" font-size="11" font-weight="500" text-anchor="middle">FY14/15 vs FY23/24</text><rect x="402.0" y="435.32" width="42" height="94.68" rx="4" fill="#DC2626" /><text x="423.0" y="427.32" fill="#DC2626" font-size="11.5" font-weight="800" text-anchor="middle">+KSh 473B</text><rect x="456.0" y="474.4" width="42" height="55.6" rx="4" fill="#2563EB" /><text x="477.0" y="466.4" fill="#2563EB" font-size="11.5" font-weight="800" text-anchor="middle">+KSh 278B</text><rect x="345" y="538" width="210" height="28" rx="5" fill="#F8FAFC" /><text x="450.0" y="556" fill="#334155" font-size="9.5" font-weight="600" text-anchor="middle">KES rebounded to 129.0</text><rect x="590" y="150" width="230" height="425" rx="10" fill="#FFFFFF" stroke="#E2E8F0" stroke-width="1" /><text x="705.0" y="178" fill="#0F172A" font-size="15" font-weight="900" text-anchor="middle">YEAR 3</text><text x="705.0" y="196" fill="#64748B" font-size="11" font-weight="500" text-anchor="middle">FY15/16 vs FY24/25</text><rect x="657.0" y="376.48" width="42" height="153.52" rx="4" fill="#DC2626" /><text x="678.0" y="368.48" fill="#DC2626" font-size="11.5" font-weight="800" text-anchor="middle">+KSh 768B</text><rect x="711.0" y="278.44000000000005" width="42" height="251.55999999999997" rx="4" fill="#2563EB" /><text x="732.0" y="270.44000000000005" fill="#2563EB" font-size="11.5" font-weight="800" text-anchor="middle">+KSh 1,258B</text><rect x="600" y="538" width="210" height="28" rx="5" fill="#F8FAFC" /><text x="705.0" y="556" fill="#334155" font-size="9.5" font-weight="600" text-anchor="middle">Domestic bond surge</text><rect x="845" y="150" width="230" height="425" rx="10" fill="#FFFFFF" stroke="#E2E8F0" stroke-width="1" /><text x="960.0" y="178" fill="#0F172A" font-size="15" font-weight="900" text-anchor="middle">YEAR 4</text><text x="960.0" y="196" fill="#64748B" font-size="11" font-weight="500" text-anchor="middle">FY16/17 vs FY25/26*</text><rect x="912.0" y="371.0" width="42" height="159.0" rx="4" fill="#DC2626" /><text x="933.0" y="363.0" fill="#DC2626" font-size="11.5" font-weight="800" text-anchor="middle">+KSh 795B</text><rect x="966.0" y="290.29999999999995" width="42" height="239.70000000000002" rx="4" fill="#2563EB" /><text x="987.0" y="282.29999999999995" fill="#2563EB" font-size="11.5" font-weight="800" text-anchor="middle">+KSh 1,198B*</text><rect x="855" y="538" width="210" height="28" rx="5" fill="#F8FAFC" /><text x="960.0" y="556" fill="#334155" font-size="9.5" font-weight="600" text-anchor="middle">Provisional estimate</text><line x1="60" y1="615" x2="1140" y2="615" stroke="#E2E8F0" stroke-width="1.2" /><text x="60" y="642" fill="#64748B" font-size="11.5" font-style="italic">Data: National Treasury Annual Public Debt Reports &amp; June 2026 Monthly Bulletin  |  *FY25/26 provisional</text><text x="1140" y="642" fill="#0F172A" font-size="11.5" font-weight="700" text-anchor="end">Analysis: Kenya in Data • kenyaindata.org</text></svg>
